<?xml version="1.0" standalone="no"?>
<!DOCTYPE svg PUBLIC "-//W3C//DTD SVG 20010904//EN"
 "http://www.w3.org/TR/2001/REC-SVG-20010904/DTD/svg10.dtd">
<svg version="1.0" xmlns="http://www.w3.org/2000/svg"
 width="500.000000pt" height="500.000000pt" viewBox="0 0 500.000000 500.000000"
 preserveAspectRatio="xMidYMid meet">
<metadata>
Created by potrace 1.16, written by Peter Selinger 2001-2019
</metadata>
<g transform="translate(0.000000,500.000000) scale(0.100000,-0.100000)"
fill="#000000" stroke="none">
<path d="M0 2689 c0 -1346 4 -2308 9 -2305 5 3 12 18 16 33 14 58 120 255 164
306 25 30 81 78 125 108 l78 54 94 -2 c92 -3 183 -25 257 -64 23 -13 14 -14
-91 -14 -108 -1 -121 -3 -176 -30 -112 -55 -214 -169 -309 -345 -76 -141 -108
-246 -120 -392 l-3 -38 653 0 653 0 0 25 c0 16 6 25 15 25 9 0 15 -9 15 -25
l0 -25 343 0 342 1 -36 33 c-76 70 -106 66 457 66 l505 0 -23 -31 c-57 -77
-88 -69 255 -69 l306 0 4 53 3 52 2 -52 2 -53 696 0 696 0 -14 23 c-14 22 -57
128 -118 287 -52 139 -137 304 -181 354 -51 57 -93 76 -172 76 l-60 0 59 38
c33 21 76 53 97 71 l37 33 60 -52 c113 -98 191 -215 265 -395 41 -99 83 -185
90 -185 3 0 5 1069 5 2375 l0 2375 -640 0 -640 0 70 -92 c39 -51 92 -136 119
-188 46 -92 101 -235 101 -264 0 -26 -95 88 -140 167 -60 106 -131 190 -247
291 l-98 86 -335 -1 c-239 -1 -314 -4 -260 -10 98 -11 211 -40 207 -53 -6 -18
-171 -96 -202 -96 -16 1 -57 7 -90 15 -33 8 -140 20 -238 25 -206 12 -320 4
-457 -35 -104 -29 -251 -82 -264 -96 -14 -13 -33 -11 -113 12 -40 12 -73 27
-73 33 0 14 297 127 411 157 46 12 145 27 219 34 129 12 118 13 -289 14 l-424
1 -96 -101 c-102 -108 -149 -168 -176 -224 -9 -19 -32 -47 -52 -62 -19 -16
-51 -41 -70 -57 -18 -16 -36 -26 -39 -24 -8 8 60 150 88 183 14 17 49 70 78
119 29 48 68 106 87 127 l35 39 -736 0 -736 0 0 -2311z m3414 2141 c324 -158
595 -396 692 -606 18 -40 37 -75 43 -78 11 -7 131 -173 131 -181 0 -3 13 -26
29 -52 16 -27 38 -80 49 -119 11 -39 36 -101 55 -138 20 -37 41 -92 47 -124 6
-31 18 -85 26 -119 10 -45 14 -132 14 -310 0 -262 -1 -272 -55 -389 -8 -17
-48 -106 -89 -198 -86 -191 -118 -251 -146 -266 -11 -6 -35 -34 -54 -63 -18
-29 -98 -116 -177 -193 -139 -136 -149 -144 -266 -203 -101 -50 -132 -61 -172
-61 -28 0 -52 4 -55 8 -3 4 12 17 32 28 86 45 243 164 322 244 121 123 237
251 267 296 15 21 43 58 62 80 41 47 110 175 135 249 30 93 68 319 73 435 6
141 -10 326 -36 400 -10 30 -41 109 -69 175 -28 66 -62 157 -76 201 -28 85
-115 237 -145 253 -10 6 -48 55 -84 110 -37 55 -91 124 -120 154 -49 49 -207
183 -253 215 -16 10 -3 12 79 9 53 -2 97 -1 97 2 0 11 -113 69 -175 89 -33 11
-116 30 -185 41 -69 12 -148 28 -177 37 l-52 15 35 37 c20 20 40 47 45 60 5
12 14 22 20 22 6 0 66 -27 133 -60z m-1758 -120 l32 -49 -82 -55 c-44 -30
-135 -91 -201 -136 -178 -120 -201 -138 -251 -202 -35 -45 -51 -58 -72 -58
-39 0 -102 19 -102 31 0 17 75 112 136 171 134 130 445 348 494 347 8 0 29
-22 46 -49z m672 -228 c214 -364 361 -745 379 -987 10 -145 21 -134 63 66 18
90 21 95 67 137 61 55 136 104 191 124 l43 17 10 -26 c17 -46 49 -206 49 -248
0 -41 0 -41 -53 -58 -47 -15 -112 -52 -158 -89 -21 -17 -69 -88 -69 -101 0 -6
26 16 58 49 67 70 130 110 190 120 42 7 42 6 42 -25 0 -29 -2 -31 -39 -31 -75
0 -182 -65 -217 -131 -17 -33 -7 -37 27 -11 53 41 103 56 197 60 82 4 101 1
168 -23 41 -15 78 -25 81 -21 19 19 -134 126 -180 126 -11 0 -4 26 29 101 25
55 56 142 71 192 14 51 27 93 28 95 2 2 21 -6 43 -17 39 -20 40 -22 51 -93 7
-40 16 -91 21 -113 5 -22 11 -78 15 -125 3 -47 8 -104 11 -127 l5 -41 -73 -36
c-40 -20 -82 -37 -93 -39 -11 -1 -24 -5 -30 -9 -5 -3 -43 -11 -83 -17 -40 -6
-76 -12 -80 -13 -4 -1 -16 3 -26 7 -13 6 -21 4 -24 -3 -2 -7 -27 -12 -65 -13
-71 -1 -52 -17 21 -18 30 -1 42 -5 42 -16 0 -21 17 -19 23 3 3 15 18 20 71 26
36 4 77 11 91 16 15 6 26 6 30 0 9 -14 25 -12 25 3 0 6 35 25 78 42 42 16 80
31 85 33 10 5 9 -170 -1 -186 -7 -9 -16 -10 -41 -1 -38 13 -131 7 -231 -16
-172 -39 -493 -63 -950 -69 -428 -6 -531 -24 -599 -102 -41 -46 -54 -102 -48
-201 3 -47 1 -80 -4 -77 -5 3 -9 11 -9 17 -1 7 -16 51 -34 100 -30 78 -31 87
-15 82 21 -7 27 19 8 31 -26 16 -129 275 -129 323 0 9 12 -4 27 -29 55 -93
145 -201 157 -189 3 3 -6 43 -20 89 -13 47 -32 119 -41 160 -20 92 -23 290 -5
340 20 55 122 123 220 146 60 14 61 13 76 -68 4 -21 13 -52 21 -70 14 -32 14
-29 15 60 0 91 0 92 24 92 60 0 178 -34 262 -75 49 -25 93 -45 97 -45 36 0
-66 64 -163 103 -41 16 -144 42 -196 49 -20 3 -20 5 -7 92 24 164 62 285 140
440 58 115 81 152 167 262 51 66 74 89 83 82 6 -5 43 -62 81 -126z m537 -183
c86 -149 170 -331 190 -410 6 -23 2 -27 -36 -39 -52 -18 -143 -75 -186 -118
-17 -18 -33 -32 -35 -32 -3 0 -1 24 4 53 21 140 31 359 21 474 -6 65 -14 126
-18 136 -4 9 -3 17 3 17 6 0 31 -36 57 -81z m-1015 39 c0 -2 -9 -32 -20 -68
-37 -123 -54 -248 -54 -402 l0 -146 -40 -6 c-47 -7 -135 -46 -173 -76 -14 -11
-28 -19 -30 -17 -4 4 61 208 77 242 5 11 25 61 45 110 55 134 173 365 188 365
4 0 7 -1 7 -2z m-931 -292 l44 -45 -35 -48 c-70 -96 -189 -302 -204 -352 -26
-90 -44 -258 -50 -476 -6 -225 -5 -234 50 -377 14 -36 32 -108 41 -160 9 -52
29 -120 45 -153 71 -149 271 -327 475 -424 44 -21 116 -64 160 -95 110 -80
201 -132 287 -167 l73 -29 -55 3 c-54 4 -245 52 -265 67 -12 9 -91 54 -165 92
-30 16 -70 45 -89 65 -18 20 -70 60 -115 91 -247 168 -382 312 -486 521 -46
92 -100 249 -100 291 0 15 -7 67 -15 115 -13 71 -13 95 -4 119 7 17 15 110 19
206 9 205 27 285 95 423 68 140 222 377 244 377 4 0 26 -20 50 -44z m2677
-728 c-22 -326 -37 -464 -56 -531 -81 -274 -131 -372 -275 -533 -153 -172
-383 -333 -561 -393 -147 -49 -169 -51 -252 -30 -162 41 -490 222 -616 340
-42 39 -76 75 -76 80 0 5 24 -8 53 -29 136 -100 335 -202 454 -233 153 -39
307 -35 503 13 279 68 583 312 668 538 44 115 55 176 56 310 1 113 -2 140 -17
168 l-18 34 40 91 c40 93 91 241 91 264 0 7 3 13 6 13 4 0 3 -46 0 -102z
m-185 -278 c39 -22 53 -68 52 -185 -1 -228 -75 -399 -238 -554 -148 -140 -288
-219 -473 -268 -85 -22 -118 -26 -267 -27 -198 -1 -229 7 -420 104 -292 150
-404 267 -442 465 -17 88 -19 211 -3 250 40 105 170 135 580 135 394 0 762 27
969 70 97 21 212 25 242 10z m-1976 -290 c17 -18 39 -62 56 -112 15 -46 30
-92 35 -102 6 -17 4 -18 -22 -12 -59 15 -74 32 -74 85 0 45 -4 53 -47 96 -46
45 -47 47 -29 61 29 21 49 17 81 -16z m970 -948 c39 -12 95 -22 125 -22 66 0
234 54 401 129 63 28 117 51 121 51 4 0 -8 -22 -27 -49 -41 -62 -82 -181 -97
-287 l-12 -83 -39 45 c-44 50 -93 75 -150 76 -73 1 -114 -75 -67 -122 16 -16
33 -20 93 -20 52 0 82 -5 109 -19 19 -11 39 -17 42 -14 3 4 6 -9 6 -28 0 -19
3 -44 6 -56 6 -22 5 -22 -102 -20 -96 2 -114 -1 -152 -20 -38 -20 -57 -23
-165 -23 -98 0 -130 4 -162 19 -52 24 -122 75 -185 135 -49 47 -50 48 -50 108
l0 60 28 -7 c40 -10 89 -43 113 -76 52 -74 78 12 31 106 -35 72 -104 121 -157
111 l-32 -6 -13 62 c-7 35 -19 75 -27 90 -7 15 -13 29 -13 32 0 2 69 -30 153
-73 83 -42 184 -87 222 -99z m-782 -92 l38 -11 -23 -18 c-13 -10 -48 -21 -79
-24 -138 -13 -246 -127 -310 -322 -12 -38 -24 -72 -26 -74 -2 -3 -36 12 -76
31 -180 90 -334 71 -460 -56 -60 -59 -135 -177 -164 -257 -16 -47 -18 -49 -56
-49 l-40 0 5 48 c12 110 94 255 216 379 116 118 173 130 397 84 50 -10 95 -16
100 -14 6 2 21 22 35 44 14 23 55 72 91 110 55 57 72 69 98 69 18 0 41 -5 51
-10 25 -14 32 1 15 33 -9 17 -10 29 -4 33 41 25 114 26 192 4z m1939 -30 c38
-11 138 -103 213 -197 75 -94 133 -112 262 -78 117 31 178 13 250 -72 176
-209 241 -306 250 -374 8 -52 8 -54 -27 -84 -50 -44 -119 -89 -126 -82 -3 3
-1 14 5 25 15 28 14 57 -4 127 -20 78 -98 235 -133 267 -38 35 -103 58 -167
58 -64 0 -196 -32 -274 -66 -29 -13 -55 -24 -56 -24 -2 0 -19 28 -38 63 -114
207 -146 255 -193 297 -80 70 -182 90 -257 50 l-37 -20 0 22 c0 17 -8 10 -31
-29 -17 -29 -33 -53 -35 -53 -3 0 -18 7 -34 15 -45 23 -29 48 58 88 77 35 149
62 187 70 40 9 151 7 187 -3z m-391 -530 c27 -15 25 -40 -21 -303 -22 -125
-40 -232 -40 -237 0 -19 47 -10 67 13 12 12 37 54 56 92 48 97 77 120 139 116
44 -3 63 -66 32 -109 -15 -22 -17 -22 -34 -7 -27 24 -61 15 -85 -22 -68 -109
-65 -101 -44 -106 12 -3 30 -28 45 -64 33 -74 50 -93 87 -93 39 0 97 57 97 97
0 15 9 77 20 137 11 60 20 122 20 137 0 21 6 28 26 33 35 9 92 -11 99 -34 3
-10 -6 -87 -20 -170 -15 -84 -24 -163 -21 -176 9 -34 42 -31 77 7 53 57 129
253 129 335 0 37 25 48 80 38 53 -11 56 -33 25 -207 -21 -121 -24 -159 -16
-176 19 -34 58 -27 103 19 22 22 44 40 49 40 17 0 9 -36 -17 -76 -33 -51 -82
-84 -133 -91 -73 -10 -116 22 -135 100 l-7 28 -32 -43 c-46 -60 -91 -88 -142
-88 -46 0 -89 26 -100 61 -6 19 -8 18 -42 -11 -42 -37 -72 -50 -119 -50 -71 0
-109 36 -140 129 -18 55 -37 81 -59 81 -8 0 -16 -8 -19 -17 -9 -31 -27 -159
-24 -174 2 -9 -8 -15 -31 -17 -50 -5 -80 6 -93 33 l-11 24 -34 -26 c-44 -34
-121 -43 -158 -19 -14 9 -33 32 -42 50 l-16 34 -30 -35 c-16 -19 -43 -41 -58
-49 -58 -29 -144 -8 -174 43 l-17 29 -32 -29 c-92 -87 -220 -72 -255 30 -13
37 -13 55 8 185 13 78 26 149 28 156 4 8 -5 12 -26 12 -35 0 -50 22 -31 45 7
8 25 15 40 15 32 0 40 18 40 93 l0 47 48 0 c72 0 86 -15 79 -83 l-5 -56 46 -3
c37 -2 48 -7 50 -22 5 -25 -14 -36 -65 -36 -36 0 -43 -4 -48 -22 -11 -54 -45
-259 -45 -277 0 -49 61 -66 116 -32 29 18 32 24 38 92 13 130 59 217 141 265
58 34 143 37 184 6 l28 -20 21 20 c19 19 92 31 106 17 3 -3 -3 -48 -14 -100
-36 -180 -45 -266 -31 -283 27 -32 94 -7 121 45 14 25 110 576 110 628 l0 41
46 0 c25 0 54 -5 65 -10z m-1415 -38 c58 -30 103 -78 133 -142 24 -51 26 -65
26 -200 0 -124 -3 -156 -23 -220 -51 -162 -136 -271 -258 -331 -64 -32 -75
-34 -169 -34 -89 0 -105 3 -151 27 -63 33 -107 85 -136 158 -30 77 -30 270 1
383 50 189 172 330 320 373 69 20 206 13 257 -14z"/>
<path d="M2410 3555 c0 -3 14 -24 30 -47 49 -67 33 -158 -39 -221 -25 -22 -31
-35 -31 -68 0 -49 22 -95 51 -104 30 -10 33 -1 15 45 -23 57 -21 68 21 130 37
56 52 122 39 174 -10 39 -86 120 -86 91z"/>
<path d="M1848 3413 c-14 -2 -32 -11 -38 -18 -10 -12 -2 -14 52 -9 34 3 77 1
93 -4 28 -9 26 -10 -30 -17 -112 -15 -207 -64 -257 -135 -33 -46 -34 -50 -8
-50 13 0 20 -7 20 -20 0 -11 1 -20 3 -20 2 0 25 21 53 46 113 106 241 135 382
87 24 -8 46 -12 49 -9 9 8 -86 92 -136 119 -48 26 -129 40 -183 30z"/>
<path d="M3327 2863 c-4 -3 -5 -20 -1 -37 9 -50 -39 -107 -108 -129 -78 -24
-89 -23 -82 12 7 33 -13 138 -27 147 -19 12 -22 -6 -10 -66 18 -90 9 -115 -42
-129 -66 -18 -475 -48 -892 -68 l-140 -6 -17 34 c-10 19 -20 60 -23 91 -7 59
-18 80 -29 52 -6 -16 7 -127 19 -156 6 -15 2 -18 -21 -18 -83 0 -102 10 -134
66 -18 32 -31 72 -33 96 -1 23 -8 43 -14 46 -22 7 -16 -92 7 -133 36 -64 25
-69 -62 -27 -41 20 -59 25 -62 16 -3 -7 1 -17 7 -23 20 -16 107 -51 127 -51
17 0 18 -7 13 -90 -5 -76 -4 -90 9 -90 12 0 16 17 20 76 3 41 9 79 14 84 5 5
41 6 79 2 68 -7 70 -8 66 -32 -10 -55 -6 -153 7 -157 8 -3 12 10 12 49 0 75
20 133 45 133 47 0 506 27 685 41 179 13 300 27 342 40 13 4 21 -7 34 -51 11
-33 23 -55 32 -55 11 0 13 7 7 28 -3 15 -9 41 -12 58 l-5 30 76 19 c41 10 78
16 81 13 3 -3 9 -25 13 -48 4 -24 13 -45 21 -48 11 -4 12 8 7 59 l-7 64 41 23
c22 12 40 29 40 37 0 19 -19 19 -40 0 -15 -14 -16 -11 -16 35 1 47 -13 78 -27
63z"/>
<path d="M2460 1512 c-27 -8 -50 -35 -50 -56 0 -38 29 -65 87 -82 50 -15 57
-15 71 0 14 14 14 19 -3 55 -26 59 -71 94 -105 83z"/>
<path d="M2595 725 c-18 -19 -41 -57 -50 -84 -21 -64 -25 -172 -6 -195 19 -23
64 -20 89 7 30 32 69 121 87 201 15 64 15 70 -1 87 -29 32 -81 25 -119 -16z"/>
<path d="M1545 1056 c-41 -18 -103 -88 -131 -151 -51 -111 -92 -351 -80 -466
15 -152 92 -218 199 -171 59 26 107 92 146 197 64 176 81 441 33 531 -33 65
-101 89 -167 60z"/>
</g>
</svg>
